<?xml version="1.0" encoding="UTF-8"?>
<svg id="Camada_1" data-name="Camada 1" xmlns="http://www.w3.org/2000/svg" viewBox="0 0 682.61 200">
  <defs>
    <style>
      .cls-1 {
        fill: #F7F4E3;
      }

      .cls-1, .cls-2 {
        stroke-width: 0px;
      }

      .cls-2 {
        fill: #8E3E36;
      }
    </style>
  </defs>
  <g>
    <path class="cls-2" d="M566.8,148.27c-.93,0-1.83.39-2.71,1.18-1.11.98-2.1,2.55-2.98,4.7-.87,2.15-1.31,4.18-1.31,6.09,0,1.46.28,2.54.85,3.24.57.7,1.37,1.06,2.39,1.06s2.01-.42,2.98-1.25c.97-.83,1.86-2.29,2.68-4.38.82-2.09,1.22-4.13,1.22-6.12,0-1.52-.28-2.66-.85-3.4-.57-.74-1.33-1.11-2.28-1.11Z"/>
    <path class="cls-2" d="M496.39,147.94c-1,0-2,.41-3.02,1.24s-1.91,2.2-2.69,4.13-1.16,3.91-1.16,5.96c0,1.61.32,2.81.97,3.58.64.77,1.56,1.16,2.75,1.16,1.06,0,2.05-.38,2.97-1.15.92-.77,1.82-2.27,2.72-4.52.9-2.25,1.34-4.24,1.34-5.99,0-1.25-.39-2.3-1.16-3.15-.77-.85-1.67-1.27-2.71-1.27Z"/>
    <path class="cls-2" d="M216.28,86.61c-9.75,0-14.32,3.84-14.32,10.62s4.98,9.45,14.34,9.45c7.94,0,15-3.46,15-9.68,0-6.78-3.62-10.39-15.02-10.39Z"/>
    <path class="cls-2" d="M435.03,81.78c-11.78,0-14.68,5.59-14.68,6.89h28.79c0-1.3-1.1-6.89-14.1-6.89Z"/>
    <path class="cls-2" d="M586.95,147.94c-1,0-2,.41-3.02,1.24s-1.91,2.2-2.69,4.13-1.16,3.91-1.16,5.96c0,1.61.32,2.81.97,3.58.64.77,1.56,1.16,2.75,1.16,1.06,0,2.05-.38,2.97-1.15.92-.77,1.82-2.27,2.72-4.52.9-2.25,1.34-4.24,1.34-5.99,0-1.25-.39-2.3-1.16-3.15-.77-.85-1.67-1.27-2.71-1.27Z"/>
    <path class="cls-2" d="M583.9,86.61c-9.75,0-14.32,3.84-14.32,10.62s4.98,9.45,14.34,9.45c7.94,0,15-3.46,15-9.68,0-6.78-3.62-10.39-15.02-10.39Z"/>
    <path class="cls-2" d="M0,0v200h682.61V0H0ZM166.92,120.53h-21.44v-40.59l-24.11,40.59h-15.88l-24.11-40.59v40.59h-21.44V53.15h28.14l25.36,42.8,25.36-42.8h28.14v67.37ZM249.05,120.53h-16.89v-5.68c-1.94,3.32-9.84,7.03-19.32,7.03-17.21,0-29.3-9.38-29.3-24.65s12.09-24.65,29.3-24.65c9.48,0,15.31,1.99,19.32,6.25v-4.9h16.89v46.6ZM331.02,120.53h-18.61v-21.1c0-8.94-4.01-11.9-10.52-11.9s-12.59,4.98-12.59,12.04v20.96h-18.13v-45.29h16.83v5.76c2.19-2.79,9.81-9.52,20.81-9.52,16.19,0,22.21,10.65,22.21,28.02v21.03ZM386.52,117.6c-3.72,2.1-7.83,2.92-12.65,2.92-18.92,0-21.96-8.16-21.96-22.11v-12.1h-13.56v-13.91h13.56v-13.72h16.95v13.72h18.6l.14,13.91h-18.6l-.14,12.1c0,1.8,1.31,7.1,7.89,7.07,2.02-.01,4.3-.88,5.33-1.5.73-.44,1.79-1.29,3.66-2.62l7.56,10.69c-1.37,1.7-5.46,4.8-6.78,5.54ZM467.51,97.94h-47.63c0,4.18,3.01,9.06,16.8,9.06,5.84,0,10.99-1.61,14.03-3.04,1.76-.83,2.73-1.81,4.44-3.05l9.55,7.75c-2.56,3.04-6.08,5.62-9.13,7.34-4.37,2.46-10.39,4.52-20.57,4.52-28.22,0-35.41-12.83-35.41-24.53s10.94-27.05,35.43-27.05,34.28,13.52,32.48,28.99ZM479.27,162.88c-.9,3.56-2.12,6.23-3.67,8.02-1.26,1.44-2.62,2.16-4.1,2.16-.92,0-1.64-.24-2.17-.72s-.8-1.09-.8-1.84c0-.62.19-1.14.56-1.53.37-.4.84-.6,1.39-.6.44,0,.8.14,1.06.41.27.27.4.62.4,1.04,0,.18-.01.4-.04.64l-.04.37c0,.25.05.43.17.55.11.12.26.18.46.18.47,0,.87-.31,1.21-.92.77-1.37,1.59-3.87,2.48-7.5l3.32-12.91c.05-.23.08-.46.08-.68,0-.4-.13-.71-.38-.92-.25-.21-.63-.31-1.14-.31h-1.63l.3-1.35,6.65-.35-4.11,16.27ZM483.21,140.15c-.41.42-.91.64-1.49.64s-1.08-.21-1.49-.64c-.41-.42-.62-.94-.62-1.54s.21-1.12.62-1.54c.41-.42.91-.64,1.49-.64s1.08.21,1.49.64.62.94.62,1.54-.21,1.12-.62,1.54ZM478.45,94.74c0-13.99,11.76-24.16,35.43-24.16,9.64,0,14.84,1.15,18.98,2.89,2.39,1.04,4.02,1.63,6.34,3.01l-7.03,12.8c-1.22-.83-4.25-2.15-5.95-2.8-2.92-1.09-4.96-1.56-10.66-1.56-11.97,0-16.47,5.24-16.47,10.43,0,7.04,3.43,10.33,16.33,10.33.06,0,.11,0,.17,0,5.98,0,13.05-2.42,16.71-4.14.09-.04.38-.19,1.27-.65l5.78,12.25q-4.61,2.75-6.54,3.68c-4.19,1.74-7.85,3.71-17.54,3.71-23.67,0-36.81-11.76-36.81-25.79ZM500.67,165.81c-.67,0-1.23-.26-1.67-.79s-.66-1.21-.66-2.04l.04-.8c-.76,1.2-1.64,2.1-2.63,2.71-1,.61-1.98.92-2.96.92-1.88,0-3.47-.71-4.77-2.12s-1.95-3.21-1.95-5.38c0-1.98.51-3.92,1.52-5.81s2.32-3.39,3.91-4.47,3.14-1.63,4.64-1.63c1.21,0,2.28.37,3.21,1.1.93.74,1.56,1.71,1.88,2.92l1.1-3.46,2.97-.35-4.15,14.88c-.11.4-.17.81-.17,1.21,0,.36.07.64.22.84.14.2.32.29.52.29.38,0,.81-.27,1.29-.8.93-1.03,1.81-2.41,2.63-4.14l1.1.51c-1.98,4.27-4.01,6.41-6.08,6.41ZM524.16,149.89c-1.09,1.76-2.55,3.39-4.4,4.88-1.09.89-2.92,2.09-5.51,3.61-1.57.91-2.56,1.55-2.99,1.9-.43.36-.79.78-1.08,1.28,1.68-.27,2.83-.41,3.45-.41.48,0,.95.05,1.42.16.32.07.85.25,1.59.57.88.36,1.48.59,1.79.66.31.08.64.12.99.12.71,0,1.34-.24,1.9-.71.56-.48,1.17-1.42,1.83-2.84l.91.64c-.8,1.93-1.8,3.42-3,4.47s-2.3,1.58-3.29,1.58c-.47,0-.98-.08-1.53-.23-.55-.16-1.52-.55-2.93-1.17-1.29-.57-2.12-.92-2.51-1.05-.39-.13-.85-.24-1.39-.33-.13.35-.22.75-.28,1.21-.09.7-.2,1.14-.32,1.32s-.33.26-.61.26-.48-.07-.62-.2c-.13-.13-.2-.33-.2-.61,0-.5.14-1.12.43-1.88.28-.75.77-1.6,1.47-2.53s1.5-1.78,2.42-2.55c.92-.77,2.3-1.71,4.16-2.81,2.49-1.48,4.16-2.58,5.02-3.28.86-.7,1.48-1.35,1.86-1.95-.85.3-1.69.45-2.54.45-.64,0-1.68-.21-3.11-.62-1.39-.42-2.38-.62-2.96-.62-.76,0-1.41.21-1.97.62s-1.15,1.24-1.78,2.48l-.97-.59c.91-1.85,1.91-3.2,3-4.05,1.09-.85,2.17-1.28,3.23-1.28.48,0,.98.06,1.51.19.52.12,1.26.39,2.21.81,1.49.65,2.51.98,3.05.98.8,0,1.3-.45,1.52-1.35.11-.42.27-.62.47-.62.19,0,.37.08.53.24s.25.35.25.56c0,.7-.34,1.6-1.02,2.7ZM542.12,149.89c-1.09,1.76-2.55,3.39-4.4,4.88-1.09.89-2.92,2.09-5.51,3.61-1.57.91-2.56,1.55-2.99,1.9-.43.36-.79.78-1.08,1.28,1.68-.27,2.83-.41,3.45-.41.48,0,.95.05,1.42.16.32.07.85.25,1.59.57.88.36,1.48.59,1.79.66.31.08.64.12.99.12.71,0,1.34-.24,1.9-.71.56-.48,1.17-1.42,1.83-2.84l.91.64c-.8,1.93-1.8,3.42-3,4.47s-2.3,1.58-3.29,1.58c-.47,0-.98-.08-1.53-.23-.55-.16-1.52-.55-2.93-1.17-1.29-.57-2.12-.92-2.51-1.05-.39-.13-.85-.24-1.39-.33-.13.35-.22.75-.28,1.21-.09.7-.2,1.14-.32,1.32s-.33.26-.61.26-.48-.07-.62-.2c-.13-.13-.2-.33-.2-.61,0-.5.14-1.12.43-1.88.28-.75.77-1.6,1.47-2.53s1.5-1.78,2.42-2.55c.92-.77,2.3-1.71,4.16-2.81,2.49-1.48,4.16-2.58,5.02-3.28.86-.7,1.48-1.35,1.86-1.95-.85.3-1.69.45-2.54.45-.64,0-1.68-.21-3.11-.62-1.39-.42-2.38-.62-2.96-.62-.76,0-1.41.21-1.97.62s-1.15,1.24-1.78,2.48l-.97-.59c.91-1.85,1.91-3.2,3-4.05,1.09-.85,2.17-1.28,3.23-1.28.48,0,.98.06,1.51.19.52.12,1.26.39,2.21.81,1.49.65,2.51.98,3.05.98.8,0,1.3-.45,1.52-1.35.11-.42.27-.62.47-.62.19,0,.37.08.53.24s.25.35.25.56c0,.7-.34,1.6-1.02,2.7ZM571.91,159.42c-1.03,2.04-2.38,3.61-4.04,4.73-1.66,1.11-3.38,1.67-5.17,1.67s-3.25-.55-4.31-1.64c-1.06-1.09-1.58-2.55-1.58-4.38,0-1.05.14-2.11.42-3.16l4.43-17.27c.04-.13.06-.26.06-.4,0-.36-.19-.64-.58-.85-.38-.21-1.15-.32-2.28-.32l.34-1.46,6.42-.35-3.54,13.6c1.86-2.12,3.82-3.19,5.87-3.19,1.56,0,2.87.61,3.92,1.82,1.06,1.21,1.58,2.79,1.58,4.75,0,2.27-.52,4.42-1.55,6.46ZM591.23,165.81c-.67,0-1.23-.26-1.67-.79s-.66-1.21-.66-2.04l.04-.8c-.76,1.2-1.64,2.1-2.63,2.71-1,.61-1.98.92-2.96.92-1.88,0-3.47-.71-4.77-2.12s-1.95-3.21-1.95-5.38c0-1.98.51-3.92,1.52-5.81s2.32-3.39,3.91-4.47,3.14-1.63,4.64-1.63c1.21,0,2.28.37,3.21,1.1.93.74,1.56,1.71,1.88,2.92l1.1-3.46,2.97-.35-4.15,14.88c-.11.4-.17.81-.17,1.21,0,.36.07.64.22.84.14.2.32.29.52.29.38,0,.81-.27,1.29-.8.93-1.03,1.81-2.41,2.63-4.14l1.1.51c-1.98,4.27-4.01,6.41-6.08,6.41ZM614.22,151.08c-.4.46-.89.69-1.47.69-.47,0-.87-.17-1.19-.51s-.49-.75-.49-1.23c0-.2.06-.46.19-.8.08-.21.11-.38.11-.51,0-.18-.04-.32-.13-.41-.09-.09-.23-.14-.42-.14-.34,0-.73.19-1.17.57-.83.74-1.66,2.05-2.46,3.93-1.47,3.4-2.5,6.15-3.11,8.26l-1.23,4.32-3.15.25,3.22-12.54c.35-1.34.52-2.26.52-2.75,0-.62-.19-1.1-.58-1.42-.39-.32-1.01-.48-1.89-.48h-.83l.4-1.35,6.25-.35-1.78,7.89c1.14-2.7,2.02-4.5,2.64-5.43s1.3-1.6,2.04-2.03c.73-.43,1.45-.64,2.15-.64.85,0,1.56.27,2.12.82.57.55.85,1.22.85,2.03,0,.75-.2,1.36-.6,1.83ZM616.68,120.53h-16.89v-5.68c-1.94,3.32-9.84,7.03-19.32,7.03-17.21,0-29.3-9.38-29.3-24.65s12.09-24.65,29.3-24.65c9.48,0,15.31,1.99,19.32,6.25v-4.9h16.89v46.6Z"/>
  </g>
  <g>
    <g>
      <path class="cls-1" d="M113.43,95.95l25.36-42.8h28.14v67.37h-21.44v-40.59l-24.11,40.59h-15.88l-24.11-40.59v40.59h-21.44V53.15h28.14l25.36,42.8Z"/>
      <path class="cls-1" d="M249.05,120.53h-16.89v-5.68c-1.94,3.32-9.84,7.03-19.32,7.03-17.21,0-29.3-9.38-29.3-24.65s12.09-24.65,29.3-24.65c9.48,0,15.31,1.99,19.32,6.25v-4.9h16.89v46.6ZM231.3,97c0-6.78-3.62-10.39-15.02-10.39-9.75,0-14.32,3.84-14.32,10.62s4.98,9.45,14.34,9.45c7.94,0,15-3.46,15-9.68Z"/>
      <path class="cls-1" d="M616.68,120.53h-16.89v-5.68c-1.94,3.32-9.84,7.03-19.32,7.03-17.21,0-29.3-9.38-29.3-24.65s12.09-24.65,29.3-24.65c9.48,0,15.31,1.99,19.32,6.25v-4.9h16.89v46.6ZM598.92,97c0-6.78-3.62-10.39-15.02-10.39-9.75,0-14.32,3.84-14.32,10.62s4.98,9.45,14.34,9.45c7.94,0,15-3.46,15-9.68Z"/>
      <path class="cls-1" d="M289.3,120.53h-18.13v-45.29h16.83v5.76c2.19-2.79,9.81-9.52,20.81-9.52,16.19,0,22.21,10.65,22.21,28.02v21.03h-18.61v-21.1c0-8.94-4.01-11.9-10.52-11.9s-12.59,4.98-12.59,12.04v20.96Z"/>
      <path class="cls-1" d="M338.36,72.41h13.56v-13.72h16.95v13.72h18.6l.14,13.91h-18.6l-.14,12.1c0,1.8,1.31,7.1,7.89,7.07,2.02-.01,4.3-.88,5.33-1.5.73-.44,1.79-1.29,3.66-2.62l7.56,10.69c-1.37,1.7-5.46,4.8-6.78,5.54-3.72,2.1-7.83,2.92-12.65,2.92-18.92,0-21.96-8.16-21.96-22.11v-12.1h-13.56v-13.91Z"/>
      <path class="cls-1" d="M464.7,108.67c-2.56,3.04-6.08,5.62-9.13,7.34-4.37,2.46-10.39,4.52-20.57,4.52-28.22,0-35.41-12.83-35.41-24.53s10.94-27.05,35.43-27.05,34.28,13.52,32.48,28.99h-47.63c0,4.18,3.01,9.06,16.8,9.06,5.84,0,10.99-1.61,14.03-3.04,1.76-.83,2.73-1.81,4.44-3.05l9.55,7.75ZM449.13,88.67c0-1.3-1.1-6.89-14.1-6.89-11.78,0-14.68,5.59-14.68,6.89h28.79Z"/>
      <path class="cls-1" d="M515.42,105.68c.06,0,.11,0,.17,0,5.98,0,13.05-2.42,16.71-4.14.09-.04.38-.19,1.27-.65l5.78,12.25q-4.61,2.75-6.54,3.68c-4.19,1.74-7.85,3.71-17.54,3.71-23.67,0-36.81-11.76-36.81-25.79s11.76-24.16,35.43-24.16c9.64,0,14.84,1.15,18.98,2.89,2.39,1.04,4.02,1.63,6.34,3.01l-7.03,12.8c-1.22-.83-4.25-2.15-5.95-2.8-2.92-1.09-4.96-1.56-10.66-1.56-11.97,0-16.47,5.24-16.47,10.43,0,7.04,3.43,10.33,16.33,10.33Z"/>
    </g>
    <g>
      <path class="cls-1" d="M476.72,146.97l6.65-.35-4.11,16.27c-.9,3.56-2.12,6.23-3.68,8.02-1.26,1.44-2.62,2.16-4.1,2.16-.92,0-1.64-.24-2.17-.72s-.8-1.09-.8-1.84c0-.62.19-1.14.56-1.53s.84-.6,1.39-.6c.44,0,.79.14,1.06.41s.4.62.4,1.04c0,.18-.01.4-.04.64l-.04.37c0,.25.05.43.16.55s.26.18.46.18c.47,0,.87-.31,1.21-.92.77-1.37,1.6-3.87,2.48-7.5l3.32-12.91c.05-.23.08-.46.08-.68,0-.4-.13-.71-.38-.92s-.63-.31-1.14-.31h-1.63l.3-1.35ZM481.73,136.44c.58,0,1.08.21,1.49.64s.62.94.62,1.54-.21,1.12-.62,1.54-.91.64-1.49.64-1.08-.21-1.49-.64-.62-.94-.62-1.54.21-1.12.62-1.54.91-.64,1.49-.64Z"/>
      <path class="cls-1" d="M498.38,162.18c-.76,1.2-1.64,2.1-2.63,2.71-1,.61-1.98.92-2.96.92-1.88,0-3.47-.71-4.77-2.12s-1.95-3.21-1.95-5.38c0-1.98.51-3.92,1.52-5.81,1.02-1.89,2.32-3.39,3.91-4.47,1.59-1.09,3.14-1.63,4.64-1.63,1.21,0,2.28.37,3.21,1.1.93.74,1.56,1.71,1.88,2.92l1.1-3.46,2.97-.35-4.15,14.88c-.11.4-.17.81-.17,1.21,0,.36.07.64.22.84.14.2.32.29.52.29.38,0,.81-.27,1.29-.8.94-1.03,1.81-2.41,2.63-4.14l1.1.51c-1.98,4.27-4.01,6.41-6.08,6.41-.67,0-1.23-.26-1.67-.79-.44-.53-.66-1.21-.66-2.04l.04-.8ZM496.39,147.94c-1,0-2,.41-3.02,1.24-1.02.83-1.91,2.2-2.69,4.13-.78,1.93-1.16,3.91-1.16,5.96,0,1.61.32,2.81.97,3.58s1.56,1.16,2.75,1.16c1.06,0,2.05-.38,2.96-1.15.92-.77,1.82-2.27,2.72-4.52.9-2.25,1.34-4.24,1.34-5.99,0-1.25-.38-2.3-1.15-3.15-.77-.85-1.67-1.27-2.71-1.27Z"/>
      <path class="cls-1" d="M510.18,161.58c1.68-.27,2.83-.41,3.45-.41.48,0,.95.05,1.42.16.31.07.85.25,1.59.57.88.36,1.48.59,1.79.66.31.08.64.12.99.12.71,0,1.34-.24,1.9-.71s1.17-1.42,1.83-2.84l.91.64c-.8,1.93-1.8,3.42-3,4.47-1.21,1.05-2.3,1.58-3.29,1.58-.47,0-.97-.08-1.53-.23-.55-.16-1.52-.55-2.93-1.17-1.29-.57-2.12-.92-2.51-1.05-.39-.13-.85-.24-1.39-.33-.13.35-.22.75-.29,1.21-.09.7-.2,1.14-.32,1.32-.12.18-.33.26-.61.26s-.48-.07-.62-.2c-.13-.13-.2-.33-.2-.61,0-.5.14-1.12.43-1.88.28-.75.77-1.6,1.47-2.53.69-.93,1.5-1.78,2.41-2.55.92-.77,2.3-1.71,4.16-2.81,2.49-1.48,4.16-2.58,5.02-3.28s1.48-1.35,1.86-1.95c-.85.3-1.69.45-2.54.45-.64,0-1.68-.21-3.11-.62-1.39-.42-2.38-.62-2.96-.62-.76,0-1.41.21-1.97.62-.55.42-1.15,1.24-1.78,2.48l-.96-.59c.91-1.85,1.91-3.2,3-4.05s2.17-1.28,3.23-1.28c.48,0,.98.06,1.51.19s1.26.39,2.21.81c1.49.65,2.51.98,3.05.98.79,0,1.3-.45,1.52-1.35.11-.42.27-.62.47-.62.19,0,.37.08.53.24s.25.35.25.56c0,.7-.34,1.6-1.02,2.7-1.09,1.76-2.55,3.39-4.39,4.88-1.09.89-2.92,2.09-5.51,3.61-1.57.91-2.56,1.55-2.99,1.9-.43.36-.79.78-1.08,1.28Z"/>
      <path class="cls-1" d="M528.14,161.58c1.68-.27,2.83-.41,3.45-.41.48,0,.95.05,1.42.16.32.07.85.25,1.59.57.88.36,1.48.59,1.79.66.31.08.64.12.99.12.71,0,1.34-.24,1.9-.71.56-.48,1.17-1.42,1.83-2.84l.91.64c-.79,1.93-1.8,3.42-3,4.47-1.21,1.05-2.3,1.58-3.29,1.58-.47,0-.98-.08-1.53-.23s-1.53-.55-2.93-1.17c-1.29-.57-2.12-.92-2.51-1.05s-.85-.24-1.39-.33c-.13.35-.22.75-.28,1.21-.09.7-.2,1.14-.32,1.32-.13.18-.33.26-.61.26s-.48-.07-.62-.2-.2-.33-.2-.61c0-.5.14-1.12.43-1.88.28-.75.77-1.6,1.47-2.53.7-.93,1.5-1.78,2.42-2.55s2.3-1.71,4.16-2.81c2.49-1.48,4.16-2.58,5.02-3.28.86-.7,1.48-1.35,1.86-1.95-.85.3-1.69.45-2.54.45-.64,0-1.68-.21-3.11-.62-1.39-.42-2.38-.62-2.96-.62-.76,0-1.41.21-1.97.62-.56.42-1.15,1.24-1.78,2.48l-.97-.59c.91-1.85,1.91-3.2,3-4.05,1.09-.85,2.17-1.28,3.23-1.28.48,0,.98.06,1.51.19.52.12,1.26.39,2.21.81,1.49.65,2.51.98,3.05.98.8,0,1.3-.45,1.52-1.35.12-.42.27-.62.47-.62.19,0,.37.08.53.24s.25.35.25.56c0,.7-.34,1.6-1.02,2.7-1.09,1.76-2.55,3.39-4.4,4.88-1.09.89-2.92,2.09-5.51,3.61-1.57.91-2.56,1.55-2.99,1.9s-.79.78-1.08,1.28Z"/>
      <path class="cls-1" d="M565.62,135.99l-3.54,13.6c1.86-2.12,3.82-3.19,5.87-3.19,1.56,0,2.87.61,3.92,1.82,1.06,1.21,1.59,2.79,1.59,4.75,0,2.27-.52,4.42-1.55,6.46s-2.38,3.61-4.04,4.73c-1.66,1.11-3.38,1.67-5.17,1.67s-3.25-.55-4.3-1.64c-1.06-1.09-1.59-2.55-1.59-4.38,0-1.05.14-2.11.42-3.16l4.43-17.27c.04-.13.06-.26.06-.4,0-.36-.19-.64-.58-.85s-1.15-.32-2.28-.32l.34-1.46,6.42-.35ZM566.8,148.27c-.93,0-1.83.39-2.71,1.18-1.11.98-2.1,2.55-2.98,4.7-.87,2.15-1.31,4.18-1.31,6.09,0,1.46.28,2.54.85,3.24.57.7,1.37,1.06,2.39,1.06s2.01-.42,2.98-1.25c.97-.83,1.86-2.29,2.68-4.38.81-2.09,1.22-4.13,1.22-6.12,0-1.52-.28-2.66-.85-3.4-.57-.74-1.33-1.11-2.28-1.11Z"/>
      <path class="cls-1" d="M588.94,162.18c-.76,1.2-1.64,2.1-2.63,2.71-1,.61-1.98.92-2.96.92-1.88,0-3.47-.71-4.77-2.12s-1.95-3.21-1.95-5.38c0-1.98.51-3.92,1.52-5.81,1.02-1.89,2.32-3.39,3.91-4.47,1.59-1.09,3.14-1.63,4.64-1.63,1.21,0,2.28.37,3.21,1.1.93.74,1.56,1.71,1.88,2.92l1.1-3.46,2.97-.35-4.15,14.88c-.11.4-.17.81-.17,1.21,0,.36.07.64.22.84.14.2.32.29.52.29.38,0,.81-.27,1.29-.8.94-1.03,1.81-2.41,2.63-4.14l1.1.51c-1.98,4.27-4.01,6.41-6.08,6.41-.67,0-1.23-.26-1.67-.79-.44-.53-.66-1.21-.66-2.04l.04-.8ZM586.95,147.94c-1,0-2,.41-3.02,1.24-1.02.83-1.91,2.2-2.69,4.13-.78,1.93-1.16,3.91-1.16,5.96,0,1.61.32,2.81.97,3.58s1.56,1.16,2.75,1.16c1.06,0,2.05-.38,2.96-1.15.92-.77,1.82-2.27,2.72-4.52.9-2.25,1.34-4.24,1.34-5.99,0-1.25-.38-2.3-1.15-3.15-.77-.85-1.67-1.27-2.71-1.27Z"/>
      <path class="cls-1" d="M602.84,165.25l-3.15.25,3.22-12.54c.35-1.34.52-2.26.52-2.75,0-.62-.19-1.1-.58-1.42-.39-.32-1.01-.48-1.89-.48h-.83l.4-1.35,6.25-.35-1.78,7.89c1.14-2.7,2.02-4.5,2.64-5.43.63-.92,1.3-1.6,2.04-2.03.73-.43,1.45-.64,2.15-.64.85,0,1.56.27,2.12.82.57.55.85,1.22.85,2.03,0,.75-.2,1.36-.6,1.83s-.89.69-1.47.69c-.47,0-.87-.17-1.19-.51s-.49-.75-.49-1.23c0-.2.06-.46.19-.8.08-.21.11-.38.11-.51,0-.18-.04-.32-.13-.41-.09-.09-.23-.14-.42-.14-.34,0-.73.19-1.18.57-.83.74-1.65,2.05-2.46,3.93-1.47,3.4-2.5,6.15-3.11,8.26l-1.23,4.32Z"/>
    </g>
  </g>
</svg>
